<svg xmlns="http://www.w3.org/2000/svg" width="850.5" viewBox="0 0 850.5 708.75" height="708.75" version="1.0"><g fill="#F2C063"><g><g><path d="M 347.46875 -1352.390625 C 304.46875 -1352.390625 280.191406 -1333.664062 274.640625 -1296.21875 C 273.253906 -1292.0625 272.5625 -1287.898438 272.5625 -1283.734375 C 272.5625 -1274.023438 283.65625 -1229.640625 305.84375 -1150.578125 C 315.5625 -1111.742188 322.5 -1077.757812 326.65625 -1048.625 C 307.238281 -1063.882812 267.707031 -1102.03125 208.0625 -1163.0625 C 169.21875 -1201.894531 138.007812 -1222.007812 114.4375 -1223.40625 C 85.300781 -1223.40625 63.800781 -1206.757812 49.9375 -1173.46875 C 45.769531 -1163.757812 43.6875 -1154.050781 43.6875 -1144.34375 C 45.082031 -1117.988281 56.875 -1098.566406 79.0625 -1086.078125 C 87.382812 -1081.921875 131.078125 -1069.4375 210.140625 -1048.625 C 247.585938 -1038.914062 280.1875 -1028.515625 307.9375 -1017.421875 C 287.125 -1009.097656 228.863281 -991.757812 133.15625 -965.40625 C 106.800781 -958.46875 88.078125 -951.53125 76.984375 -944.59375 C 53.398438 -930.726562 41.609375 -912.695312 41.609375 -890.5 C 41.609375 -859.988281 54.785156 -836.410156 81.140625 -819.765625 C 92.234375 -812.828125 104.023438 -809.359375 116.515625 -809.359375 C 140.097656 -809.359375 177.550781 -837.097656 228.875 -892.578125 C 271.863281 -938.359375 304.457031 -969.566406 326.65625 -986.203125 C 323.882812 -964.015625 309.320312 -902.984375 282.96875 -803.109375 C 276.03125 -778.148438 272.5625 -759.425781 272.5625 -746.9375 C 272.5625 -709.488281 291.976562 -687.988281 330.8125 -682.4375 C 336.363281 -681.050781 341.21875 -680.359375 345.375 -680.359375 C 388.375 -680.359375 412.648438 -699.082031 418.203125 -736.53125 C 419.585938 -740.695312 420.28125 -744.859375 420.28125 -749.015625 C 420.28125 -760.117188 409.1875 -803.8125 387 -880.09375 C 375.894531 -920.320312 368.265625 -955.691406 364.109375 -986.203125 C 383.523438 -973.722656 422.363281 -936.273438 480.625 -873.859375 C 523.625 -830.859375 556.21875 -809.359375 578.40625 -809.359375 C 607.539062 -809.359375 629.039062 -826.003906 642.90625 -859.296875 C 647.070312 -869.003906 649.15625 -878.710938 649.15625 -888.421875 C 647.769531 -914.773438 635.976562 -934.191406 613.78125 -946.671875 C 605.457031 -950.835938 561.765625 -963.320312 482.703125 -984.125 C 445.253906 -993.832031 412.65625 -1004.238281 384.90625 -1015.34375 C 405.71875 -1023.664062 463.976562 -1041.003906 559.6875 -1067.359375 C 586.039062 -1074.285156 604.765625 -1081.21875 615.859375 -1088.15625 C 639.441406 -1102.03125 651.234375 -1120.0625 651.234375 -1142.25 C 651.234375 -1172.769531 638.054688 -1196.351562 611.703125 -1213 C 600.609375 -1219.9375 588.816406 -1223.40625 576.328125 -1223.40625 C 551.359375 -1223.40625 515.296875 -1197.742188 468.140625 -1146.421875 C 423.753906 -1097.867188 389.769531 -1064.578125 366.1875 -1046.546875 C 368.957031 -1068.742188 383.519531 -1129.773438 409.875 -1229.640625 C 416.8125 -1254.609375 420.28125 -1273.332031 420.28125 -1285.8125 C 420.28125 -1323.269531 400.863281 -1344.769531 362.03125 -1350.3125 C 356.476562 -1351.695312 351.625 -1352.390625 347.46875 -1352.390625 Z M 347.46875 -1352.390625" transform="translate(77.727 1374.054)"/></g></g></g></svg>