<svg xmlns="http://www.w3.org/2000/svg" width="850.5" viewBox="0 0 850.5 708.75" height="708.75" version="1.0"><g fill="#F2C063"><g><g><path d="M 406.796875 -1257.171875 C 406.796875 -1303.503906 405.429688 -1349.15625 402.703125 -1394.125 C 399.972656 -1439.101562 397.929688 -1468.40625 396.578125 -1482.03125 C 404.753906 -1484.757812 423.148438 -1489.53125 451.765625 -1496.34375 C 480.378906 -1503.15625 507.632812 -1506.5625 533.53125 -1506.5625 L 547.84375 -1492.25 C 545.113281 -1478.625 538.296875 -1447.617188 527.390625 -1399.234375 C 516.492188 -1350.859375 503.550781 -1304.1875 488.5625 -1259.21875 L 419.0625 -1249 Z M 355.6875 -1154.96875 C 312.082031 -1169.957031 268.132812 -1182.898438 223.84375 -1193.796875 C 179.550781 -1204.703125 151.269531 -1211.519531 139 -1214.25 C 139 -1222.425781 140.019531 -1241.160156 142.0625 -1270.453125 C 144.113281 -1299.753906 149.226562 -1327.351562 157.40625 -1353.25 L 175.796875 -1361.421875 C 188.066406 -1354.609375 215.664062 -1338.597656 258.59375 -1313.390625 C 301.519531 -1288.179688 342.0625 -1261.265625 380.21875 -1232.640625 L 367.953125 -1165.1875 Z M 517.171875 -1224.46875 L 519.21875 -1240.828125 C 562.832031 -1254.453125 605.757812 -1269.78125 648 -1286.8125 C 690.25 -1303.851562 717.507812 -1315.097656 729.78125 -1320.546875 C 735.226562 -1313.734375 745.445312 -1297.71875 760.4375 -1272.5 C 775.425781 -1247.289062 787.007812 -1222.421875 795.1875 -1197.890625 L 787.015625 -1179.5 C 772.023438 -1176.769531 740 -1173.359375 690.9375 -1169.265625 C 641.875 -1165.179688 593.492188 -1163.820312 545.796875 -1165.1875 Z M 564.203125 -854.46875 C 557.378906 -868.09375 544.085938 -897.390625 524.328125 -942.359375 C 504.566406 -987.335938 487.875 -1032.992188 474.25 -1079.328125 L 523.3125 -1126.34375 L 539.671875 -1128.390625 C 565.554688 -1091.597656 593.148438 -1055.484375 622.453125 -1020.046875 C 651.753906 -984.617188 670.492188 -962.132812 678.671875 -952.59375 C 673.222656 -945.78125 661.296875 -931.46875 642.890625 -909.65625 C 624.492188 -887.851562 604.394531 -868.773438 582.59375 -852.421875 Z M 314.8125 -887.171875 C 306.632812 -889.898438 288.914062 -897.054688 261.65625 -908.640625 C 234.394531 -920.222656 209.863281 -933.507812 188.0625 -948.5 L 186.015625 -966.90625 C 195.554688 -977.800781 219.066406 -999.601562 256.546875 -1032.3125 C 294.023438 -1065.019531 332.523438 -1095.003906 372.046875 -1122.265625 L 431.328125 -1089.546875 L 437.453125 -1075.25 C 410.203125 -1038.445312 384.648438 -1000.625 360.796875 -961.78125 C 336.953125 -922.945312 321.625 -898.078125 314.8125 -887.171875 Z M 314.8125 -887.171875" transform="translate(-28.863 1529.07)"/></g></g></g></svg>