<svg xmlns="http://www.w3.org/2000/svg" width="850.5" viewBox="0 0 850.5 708.75" height="708.75" version="1.0"><g fill="#F2C063"><g><g><path d="M 372.59375 -1454.703125 C 392.21875 -1454.703125 407.707031 -1447.859375 419.0625 -1434.171875 C 430.425781 -1420.492188 437.65625 -1402.035156 440.75 -1378.796875 C 442.820312 -1364.847656 444.757812 -1348.445312 446.5625 -1329.59375 C 448.375 -1310.75 449.921875 -1291.128906 451.203125 -1270.734375 C 452.492188 -1250.335938 453.785156 -1230.195312 455.078125 -1210.3125 C 456.367188 -1190.4375 457.789062 -1172.625 459.34375 -1156.875 C 460.894531 -1141.125 462.441406 -1128.34375 463.984375 -1118.53125 C 465.535156 -1108.71875 467.347656 -1103.8125 469.421875 -1103.8125 C 471.484375 -1103.8125 475.351562 -1109.234375 481.03125 -1120.078125 C 486.71875 -1130.921875 493.691406 -1144.34375 501.953125 -1160.34375 C 510.210938 -1176.351562 519.632812 -1193.78125 530.21875 -1212.625 C 540.8125 -1231.476562 552.429688 -1248.910156 565.078125 -1264.921875 C 577.734375 -1280.929688 591.160156 -1294.359375 605.359375 -1305.203125 C 619.554688 -1316.046875 634.144531 -1321.46875 649.125 -1321.46875 C 665.132812 -1321.46875 676.492188 -1317.207031 683.203125 -1308.6875 C 689.921875 -1300.164062 693.28125 -1289.191406 693.28125 -1275.765625 C 693.28125 -1260.796875 687.984375 -1245.5625 677.390625 -1230.0625 C 666.804688 -1214.570312 653.507812 -1199.597656 637.5 -1185.140625 C 621.5 -1170.679688 604.332031 -1156.867188 586 -1143.703125 C 567.664062 -1130.535156 550.492188 -1118.65625 534.484375 -1108.0625 C 518.472656 -1097.476562 505.171875 -1088.441406 494.578125 -1080.953125 C 483.992188 -1073.460938 478.703125 -1067.910156 478.703125 -1064.296875 C 478.703125 -1059.140625 483.738281 -1052.425781 493.8125 -1044.15625 C 503.882812 -1035.894531 516.535156 -1026.34375 531.765625 -1015.5 C 547.003906 -1004.65625 563.53125 -992.773438 581.34375 -979.859375 C 599.164062 -966.953125 615.691406 -953.398438 630.921875 -939.203125 C 646.148438 -925.003906 658.800781 -910.03125 668.875 -894.28125 C 678.945312 -878.53125 683.984375 -862.390625 683.984375 -845.859375 C 683.984375 -828.304688 679.207031 -813.585938 669.65625 -801.703125 C 660.101562 -789.828125 646.285156 -783.890625 628.203125 -783.890625 C 611.679688 -783.890625 596.835938 -788.28125 583.671875 -797.0625 C 570.503906 -805.84375 558.5 -817.71875 547.65625 -832.6875 C 533.707031 -851.800781 521.050781 -872.203125 509.6875 -893.890625 C 498.332031 -915.578125 488.265625 -935.457031 479.484375 -953.53125 C 470.703125 -971.601562 463.34375 -986.707031 457.40625 -998.84375 C 451.46875 -1010.976562 446.953125 -1017.046875 443.859375 -1017.046875 C 440.753906 -1017.046875 435.070312 -1012.523438 426.8125 -1003.484375 C 418.550781 -994.453125 408.867188 -983.222656 397.765625 -969.796875 C 386.660156 -956.367188 374.265625 -941.648438 360.578125 -925.640625 C 346.898438 -909.640625 333.085938 -894.925781 319.140625 -881.5 C 305.191406 -868.070312 291.375 -856.835938 277.6875 -847.796875 C 264.007812 -838.753906 251.75 -834.234375 240.90625 -834.234375 C 230.0625 -834.234375 220.503906 -837.460938 212.234375 -843.921875 C 203.972656 -850.378906 199.84375 -860.320312 199.84375 -873.75 C 199.84375 -886.65625 204.878906 -899.691406 214.953125 -912.859375 C 225.023438 -926.035156 237.675781 -938.816406 252.90625 -951.203125 C 268.144531 -963.597656 284.539062 -975.347656 302.09375 -986.453125 C 319.65625 -997.554688 336.050781 -1007.492188 351.28125 -1016.265625 C 366.519531 -1025.046875 379.171875 -1032.664062 389.234375 -1039.125 C 399.304688 -1045.582031 404.34375 -1050.359375 404.34375 -1053.453125 C 404.34375 -1056.554688 399.695312 -1058.109375 390.40625 -1058.109375 C 381.625 -1058.109375 369.488281 -1057.847656 354 -1057.328125 C 338.507812 -1056.816406 320.953125 -1056.5625 301.328125 -1056.5625 C 280.671875 -1056.5625 258.332031 -1056.6875 234.3125 -1056.9375 C 210.300781 -1057.195312 186.675781 -1058.617188 163.4375 -1061.203125 C 138.65625 -1063.785156 117.613281 -1069.851562 100.3125 -1079.40625 C 83.007812 -1088.957031 74.359375 -1104.0625 74.359375 -1124.71875 C 74.359375 -1135.5625 76.164062 -1144.597656 79.78125 -1151.828125 C 83.394531 -1159.054688 88.171875 -1164.863281 94.109375 -1169.25 C 100.054688 -1173.644531 106.644531 -1176.617188 113.875 -1178.171875 C 121.101562 -1179.722656 128.585938 -1180.5 136.328125 -1180.5 C 150.785156 -1180.5 167.828125 -1178.046875 187.453125 -1173.140625 C 207.078125 -1168.234375 227.21875 -1162.164062 247.875 -1154.9375 C 268.53125 -1147.707031 288.925781 -1140.085938 309.0625 -1132.078125 C 329.207031 -1124.078125 347.15625 -1116.585938 362.90625 -1109.609375 C 378.65625 -1102.640625 391.4375 -1097.085938 401.25 -1092.953125 C 411.0625 -1088.828125 415.96875 -1087.28125 415.96875 -1088.3125 C 415.96875 -1091.925781 413.515625 -1099.929688 408.609375 -1112.328125 C 403.703125 -1124.722656 397.503906 -1139.695312 390.015625 -1157.25 C 382.523438 -1174.8125 374.519531 -1193.921875 366 -1214.578125 C 357.476562 -1235.234375 349.472656 -1256.019531 341.984375 -1276.9375 C 334.503906 -1297.851562 328.3125 -1317.734375 323.40625 -1336.578125 C 318.5 -1355.421875 316.046875 -1371.554688 316.046875 -1384.984375 C 316.046875 -1397.898438 317.722656 -1408.875 321.078125 -1417.90625 C 324.429688 -1426.945312 328.816406 -1434.175781 334.234375 -1439.59375 C 339.660156 -1445.019531 345.726562 -1448.894531 352.4375 -1451.21875 C 359.15625 -1453.539062 365.875 -1454.703125 372.59375 -1454.703125 Z M 372.59375 -1454.703125" transform="translate(0 1474.134)"/></g></g></g></svg>