<svg xmlns="http://www.w3.org/2000/svg" xmlns:xlink="http://www.w3.org/1999/xlink" width="850.5" viewBox="0 0 850.5 708.75" height="708.75" version="1.0"><defs><clipPath id="d"><path d="M 0.28125 181 L 158 181 L 158 290 L 0.28125 290 Z M 0.28125 181"/></clipPath><clipPath id="e"><path d="M 203 469 L 290 469 L 290 614.300781 L 203 614.300781 Z M 203 469"/></clipPath><clipPath id="f"><path d="M 0.28125 325 L 158 325 L 158 434 L 0.28125 434 Z M 0.28125 325"/></clipPath><clipPath id="g"><path d="M 325 0.800781 L 411 0.800781 L 411 146 L 325 146 Z M 325 0.800781"/></clipPath><clipPath id="h"><path d="M 203 0.800781 L 290 0.800781 L 290 146 L 203 146 Z M 203 0.800781"/></clipPath><clipPath id="i"><path d="M 325 469 L 411 469 L 411 614.300781 L 325 614.300781 Z M 325 469"/></clipPath><clipPath id="j"><path d="M 456 325 L 613.78125 325 L 613.78125 434 L 456 434 Z M 456 325"/></clipPath><clipPath id="k"><path d="M 456 181 L 613.78125 181 L 613.78125 290 L 456 290 Z M 456 181"/></clipPath><clipPath id="c"><path d="M0 0H614V615H0z"/></clipPath><filter x="0%" y="0%" width="100%" xlink:type="simple" xlink:actuate="onLoad" height="100%" id="a" xlink:show="other"><feColorMatrix values="0 0 0 0 1 0 0 0 0 1 0 0 0 0 1 0 0 0 1 0" color-interpolation-filters="sRGB"/></filter><mask id="b"><g filter="url(#a)"><path fill-opacity=".659" d="M-85.05 -70.875H935.5500000000001V779.625H-85.05z"/></g></mask></defs><g fill="#034879"><g><g><path d="M 193.59375 -753.484375 C 169.632812 -753.484375 156.109375 -743.050781 153.015625 -722.1875 C 152.242188 -719.863281 151.859375 -717.546875 151.859375 -715.234375 C 151.859375 -709.828125 158.039062 -685.097656 170.40625 -641.046875 C 175.8125 -619.398438 179.675781 -600.460938 182 -584.234375 C 171.175781 -592.742188 149.148438 -614 115.921875 -648 C 94.285156 -669.632812 76.894531 -680.835938 63.75 -681.609375 C 47.519531 -681.609375 35.546875 -672.335938 27.828125 -653.796875 C 25.503906 -648.390625 24.34375 -642.976562 24.34375 -637.5625 C 25.113281 -622.882812 31.679688 -612.066406 44.046875 -605.109375 C 48.679688 -602.785156 73.023438 -595.828125 117.078125 -584.234375 C 137.941406 -578.828125 156.101562 -573.035156 171.5625 -566.859375 C 159.96875 -562.222656 127.507812 -552.5625 74.1875 -537.875 C 59.507812 -534.007812 49.078125 -530.144531 42.890625 -526.28125 C 29.753906 -518.550781 23.1875 -508.503906 23.1875 -496.140625 C 23.1875 -479.140625 30.523438 -466.003906 45.203125 -456.734375 C 51.390625 -452.867188 57.960938 -450.9375 64.921875 -450.9375 C 78.054688 -450.9375 98.921875 -466.390625 127.515625 -497.296875 C 151.472656 -522.804688 169.632812 -540.195312 182 -549.46875 C 180.445312 -537.101562 172.332031 -503.097656 157.65625 -447.453125 C 153.789062 -433.546875 151.859375 -423.113281 151.859375 -416.15625 C 151.859375 -395.289062 162.675781 -383.3125 184.3125 -380.21875 C 187.40625 -379.445312 190.109375 -379.0625 192.421875 -379.0625 C 216.378906 -379.0625 229.90625 -389.492188 233 -410.359375 C 233.769531 -412.679688 234.15625 -415 234.15625 -417.3125 C 234.15625 -423.5 227.972656 -447.84375 215.609375 -490.34375 C 209.429688 -512.757812 205.179688 -532.46875 202.859375 -549.46875 C 213.679688 -542.507812 235.320312 -521.644531 267.78125 -486.875 C 291.738281 -462.914062 309.898438 -450.9375 322.265625 -450.9375 C 338.492188 -450.9375 350.472656 -460.207031 358.203125 -478.75 C 360.515625 -484.164062 361.671875 -489.578125 361.671875 -494.984375 C 360.898438 -509.660156 354.332031 -520.476562 341.96875 -527.4375 C 337.332031 -529.757812 312.988281 -536.71875 268.9375 -548.3125 C 248.070312 -553.71875 229.910156 -559.507812 214.453125 -565.6875 C 226.046875 -570.332031 258.503906 -579.992188 311.828125 -594.671875 C 326.515625 -598.535156 336.945312 -602.398438 343.125 -606.265625 C 356.257812 -613.992188 362.828125 -624.039062 362.828125 -636.40625 C 362.828125 -653.40625 355.488281 -666.539062 340.8125 -675.8125 C 334.625 -679.675781 328.050781 -681.609375 321.09375 -681.609375 C 307.1875 -681.609375 287.097656 -667.3125 260.828125 -638.71875 C 236.097656 -611.675781 217.160156 -593.128906 204.015625 -583.078125 C 205.566406 -595.441406 213.679688 -629.445312 228.359375 -685.09375 C 232.222656 -699 234.15625 -709.429688 234.15625 -716.390625 C 234.15625 -737.253906 223.335938 -749.234375 201.703125 -752.328125 C 198.609375 -753.097656 195.90625 -753.484375 193.59375 -753.484375 Z M 193.59375 -753.484375" transform="translate(231.532 933.81)"/></g></g></g><g mask="url(#b)"><g><g clip-path="url(#c)" transform="translate(118 54)"><g clip-path="url(#d)"><path fill="#F2C063" d="M 157.828125 181.738281 L 27.707031 181.738281 C 12.609375 214.960938 2.523438 251.320312 0.28125 289.578125 L 145.734375 289.578125 C 146.789062 252.75 150.863281 216.222656 157.828125 181.738281"/></g><path fill="#F2C063" d="M 289.058594 181.738281 L 194.652344 181.738281 C 187.355469 216.347656 182.796875 253.09375 181.652344 289.578125 L 289.058594 289.578125 L 289.058594 181.738281"/><g clip-path="url(#e)"><path fill="#F2C063" d="M 289.058594 614.300781 L 289.058594 469.316406 L 203.3125 469.316406 C 222.917969 539.488281 253.902344 599.832031 289.058594 614.300781"/></g><g clip-path="url(#f)"><path fill="#F2C063" d="M 157.828125 433.367188 C 150.863281 398.882812 146.789062 362.355469 145.734375 325.527344 L 0.28125 325.527344 C 2.523438 363.78125 12.609375 400.136719 27.707031 433.367188 L 157.828125 433.367188"/></g><g clip-path="url(#g)"><path fill="#F2C063" d="M 325.003906 0.800781 L 325.003906 145.789062 L 410.75 145.789062 C 391.144531 75.617188 360.160156 15.277344 325.003906 0.800781"/></g><path fill="#F2C063" d="M 419.410156 181.738281 L 325.003906 181.738281 L 325.003906 289.578125 L 432.410156 289.578125 C 431.265625 253.09375 426.710938 216.347656 419.410156 181.738281"/><g clip-path="url(#h)"><path fill="#F2C063" d="M 289.058594 145.789062 L 289.058594 0.800781 C 253.902344 15.277344 222.917969 75.617188 203.3125 145.789062 L 289.058594 145.789062"/></g><path fill="#F2C063" d="M 194.652344 433.367188 L 289.058594 433.367188 L 289.058594 325.527344 L 181.652344 325.527344 C 182.796875 362.007812 187.351562 398.757812 194.652344 433.367188"/><g clip-path="url(#i)"><path fill="#F2C063" d="M 410.757812 469.316406 L 325.003906 469.316406 L 325.003906 614.300781 C 360.160156 599.832031 391.144531 539.488281 410.757812 469.316406"/></g><path fill="#F2C063" d="M 227.828125 7.46875 C 152.523438 27.730469 87.5625 81.28125 47.089844 145.789062 L 166.402344 145.789062 C 180.890625 91.917969 202.066406 39.789062 227.828125 7.46875"/><path fill="#F2C063" d="M 47.089844 469.316406 C 87.5625 533.824219 152.523438 587.375 227.828125 607.636719 C 202.070312 575.316406 180.890625 523.1875 166.402344 469.316406 L 47.089844 469.316406"/><path fill="#F2C063" d="M 447.660156 469.316406 C 433.175781 523.1875 411.996094 575.316406 386.238281 607.636719 C 461.542969 587.375 526.5 533.824219 566.976562 469.316406 L 447.660156 469.316406"/><path fill="#F2C063" d="M 566.972656 145.789062 C 526.5 81.28125 461.539062 27.730469 386.234375 7.46875 C 411.992188 39.789062 433.171875 91.917969 447.660156 145.789062 L 566.972656 145.789062"/><path fill="#F2C063" d="M 432.410156 325.527344 L 325.003906 325.527344 L 325.003906 433.367188 L 419.410156 433.367188 C 426.710938 398.757812 431.265625 362.007812 432.410156 325.527344"/><g clip-path="url(#j)"><path fill="#F2C063" d="M 456.238281 433.367188 L 586.355469 433.367188 C 601.453125 400.136719 611.539062 363.78125 613.78125 325.527344 L 468.328125 325.527344 C 467.273438 362.355469 463.199219 398.882812 456.238281 433.367188"/></g><g clip-path="url(#k)"><path fill="#F2C063" d="M 456.238281 181.738281 C 463.199219 216.222656 467.273438 252.75 468.328125 289.578125 L 613.78125 289.578125 C 611.539062 251.320312 601.453125 214.964844 586.355469 181.738281 L 456.238281 181.738281"/></g></g></g></g></svg>