<svg xmlns="http://www.w3.org/2000/svg" width="850.5" viewBox="0 0 850.5 708.75" height="708.75" version="1.0"><path stroke-linecap="round" transform="matrix(26.23773 0 0 26.2808 124.302 511.943)" fill="none" d="M 0.500021 -0.000057376 L 22.425301 -0.000057376" stroke="#AC141F"/><g fill="#F2C063"><g><g><path d="M 197.953125 -770.46875 C 173.453125 -770.46875 159.625 -759.800781 156.46875 -738.46875 C 155.675781 -736.09375 155.28125 -733.71875 155.28125 -731.34375 C 155.28125 -725.8125 161.601562 -700.523438 174.25 -655.484375 C 179.78125 -633.359375 183.726562 -614 186.09375 -597.40625 C 175.03125 -606.101562 152.507812 -627.832031 118.53125 -662.59375 C 96.40625 -684.726562 78.625 -696.1875 65.1875 -696.96875 C 48.59375 -696.96875 36.347656 -687.488281 28.453125 -668.53125 C 26.078125 -663 24.890625 -657.46875 24.890625 -651.9375 C 25.679688 -636.914062 32.398438 -625.851562 45.046875 -618.75 C 49.785156 -616.375 74.675781 -609.257812 119.71875 -597.40625 C 141.050781 -591.875 159.617188 -585.945312 175.421875 -579.625 C 163.578125 -574.882812 130.390625 -565.007812 75.859375 -550 C 60.847656 -546.039062 50.179688 -542.085938 43.859375 -538.140625 C 30.421875 -530.234375 23.703125 -519.960938 23.703125 -507.328125 C 23.703125 -489.941406 31.210938 -476.503906 46.234375 -467.015625 C 52.546875 -463.066406 59.257812 -461.09375 66.375 -461.09375 C 79.8125 -461.09375 101.148438 -476.898438 130.390625 -508.515625 C 154.878906 -534.585938 173.445312 -552.363281 186.09375 -561.84375 C 184.519531 -549.195312 176.222656 -514.425781 161.203125 -457.53125 C 157.253906 -443.3125 155.28125 -432.644531 155.28125 -425.53125 C 155.28125 -404.195312 166.34375 -391.953125 188.46875 -388.796875 C 191.625 -388.003906 194.390625 -387.609375 196.765625 -387.609375 C 221.265625 -387.609375 235.09375 -398.273438 238.25 -419.609375 C 239.039062 -421.972656 239.4375 -424.34375 239.4375 -426.71875 C 239.4375 -433.039062 233.113281 -457.929688 220.46875 -501.390625 C 214.144531 -524.304688 209.800781 -544.457031 207.4375 -561.84375 C 218.5 -554.738281 240.625 -533.40625 273.8125 -497.84375 C 298.3125 -473.34375 316.878906 -461.09375 329.515625 -461.09375 C 346.117188 -461.09375 358.367188 -470.578125 366.265625 -489.546875 C 368.640625 -495.078125 369.828125 -500.609375 369.828125 -506.140625 C 369.035156 -521.148438 362.316406 -532.210938 349.671875 -539.328125 C 344.929688 -541.691406 320.039062 -548.800781 275 -560.65625 C 253.664062 -566.1875 235.09375 -572.113281 219.28125 -578.4375 C 231.132812 -583.175781 264.328125 -593.054688 318.859375 -608.078125 C 333.867188 -612.023438 344.535156 -615.972656 350.859375 -619.921875 C 364.296875 -627.828125 371.015625 -638.101562 371.015625 -650.75 C 371.015625 -668.132812 363.503906 -681.566406 348.484375 -691.046875 C 342.160156 -694.992188 335.445312 -696.96875 328.34375 -696.96875 C 314.113281 -696.96875 293.566406 -682.351562 266.703125 -653.125 C 241.410156 -625.457031 222.050781 -606.488281 208.625 -596.21875 C 210.195312 -608.863281 218.492188 -643.632812 233.515625 -700.53125 C 237.460938 -714.757812 239.4375 -725.425781 239.4375 -732.53125 C 239.4375 -753.875 228.375 -766.125 206.25 -769.28125 C 203.082031 -770.070312 200.316406 -770.46875 197.953125 -770.46875 Z M 197.953125 -770.46875" transform="translate(227.24 814.772)"/></g></g></g><g><g><g><path d="M 5.984375 -0.8125 C 7.398438 -0.8125 8.613281 -1.316406 9.625 -2.328125 C 10.632812 -3.347656 11.171875 -4.566406 11.234375 -5.984375 L 11.234375 -51.890625 C 11.066406 -53.203125 10.488281 -54.304688 9.5 -55.203125 C 8.519531 -56.109375 7.347656 -56.5625 5.984375 -56.5625 L 5 -56.5625 L 4.921875 -57.375 L 28.9375 -57.375 C 30.625 -57.375 32.460938 -57.535156 34.453125 -57.859375 C 36.453125 -58.191406 37.863281 -58.523438 38.6875 -58.859375 L 38.6875 -48.53125 L 37.875 -48.53125 L 37.875 -50 C 37.875 -51.3125 37.421875 -52.429688 36.515625 -53.359375 C 35.617188 -54.285156 34.539062 -54.78125 33.28125 -54.84375 L 16.5625 -54.84375 L 16.5625 -29.515625 L 30.40625 -29.515625 C 31.5 -29.566406 32.425781 -29.972656 33.1875 -30.734375 C 33.957031 -31.503906 34.34375 -32.460938 34.34375 -33.609375 L 34.34375 -34.75 L 35.171875 -34.75 L 35.171875 -21.796875 L 34.34375 -21.796875 L 34.34375 -23.03125 C 34.34375 -24.125 33.972656 -25.050781 33.234375 -25.8125 C 32.492188 -26.582031 31.582031 -26.992188 30.5 -27.046875 L 16.5625 -27.046875 L 16.5625 -2.546875 L 28.28125 -2.546875 C 32.320312 -2.546875 35.40625 -3.445312 37.53125 -5.25 C 39.664062 -7.050781 41.445312 -9.726562 42.875 -13.28125 L 43.6875 -13.28125 L 38.9375 0 L 4.921875 0 L 4.921875 -0.8125 Z M 5.984375 -0.8125" transform="translate(248.397 639.088)"/></g></g></g><g><g><g><path d="M 58.203125 -24.59375 C 58.203125 -17 55.835938 -11 51.109375 -6.59375 C 46.378906 -2.195312 39.972656 0 31.890625 0 L 4.515625 0 L 4.515625 -0.8125 L 5.578125 -0.8125 C 6.890625 -0.8125 7.984375 -1.25 8.859375 -2.125 C 9.734375 -3 10.195312 -4.039062 10.25 -5.25 L 10.25 -43.9375 C 10.195312 -45.25 9.71875 -46.3125 8.8125 -47.125 C 7.90625 -47.945312 6.796875 -48.359375 5.484375 -48.359375 L 4.515625 -48.359375 L 4.515625 -49.1875 L 31.890625 -49.1875 C 37.242188 -49.1875 41.898438 -48.203125 45.859375 -46.234375 C 49.816406 -44.265625 52.863281 -41.421875 55 -37.703125 C 57.132812 -33.984375 58.203125 -29.613281 58.203125 -24.59375 Z M 15.578125 -46.71875 L 15.578125 -2.453125 L 31.890625 -2.453125 C 38.171875 -2.453125 43.140625 -4.429688 46.796875 -8.390625 C 50.460938 -12.359375 52.296875 -17.757812 52.296875 -24.59375 C 52.296875 -31.425781 50.460938 -36.820312 46.796875 -40.78125 C 43.140625 -44.738281 38.171875 -46.71875 31.890625 -46.71875 Z M 15.578125 -46.71875" transform="translate(295.682 639.088)"/></g></g></g><g><g><g><path d="M 5.65625 -0.8125 C 7.132812 -0.8125 8.414062 -1.25 9.5 -2.125 C 10.59375 -3 11.140625 -4.039062 11.140625 -5.25 L 11.140625 -43.9375 C 11.140625 -45.132812 10.59375 -46.171875 9.5 -47.046875 C 8.414062 -47.921875 7.109375 -48.359375 5.578125 -48.359375 L 4.515625 -48.359375 L 4.515625 -49.1875 L 23.03125 -49.1875 L 23.03125 -48.359375 L 21.96875 -48.359375 C 20.488281 -48.359375 19.21875 -47.945312 18.15625 -47.125 C 17.09375 -46.3125 16.503906 -45.300781 16.390625 -44.09375 L 16.390625 -5.15625 C 16.441406 -3.957031 17.015625 -2.929688 18.109375 -2.078125 C 19.203125 -1.234375 20.488281 -0.8125 21.96875 -0.8125 L 23.03125 -0.8125 L 23.109375 0 L 4.515625 0 L 4.515625 -0.8125 Z M 5.65625 -0.8125" transform="translate(357.963 639.088)"/></g></g></g><g><g><g><path d="M 26.390625 -46.796875 L 26.390625 -5.15625 C 26.441406 -3.46875 27.265625 -2.210938 28.859375 -1.390625 C 29.566406 -1.003906 30.359375 -0.8125 31.234375 -0.8125 L 32.125 -0.8125 L 32.125 0 L 15.25 0 L 15.25 -0.8125 L 16.234375 -0.8125 C 17.546875 -0.8125 18.664062 -1.25 19.59375 -2.125 C 20.519531 -3 21.007812 -4.039062 21.0625 -5.25 L 21.0625 -46.796875 L 6.234375 -46.796875 C 4.972656 -46.796875 3.972656 -46.382812 3.234375 -45.5625 C 2.492188 -44.75 2.125 -43.769531 2.125 -42.625 L 2.125 -41.3125 L 1.234375 -41.3125 L 1.234375 -50.578125 C 2.328125 -50.140625 3.867188 -49.8125 5.859375 -49.59375 C 7.859375 -49.375 9.347656 -49.265625 10.328125 -49.265625 L 37.046875 -49.265625 C 40.984375 -49.265625 44.046875 -49.703125 46.234375 -50.578125 L 46.234375 -41.3125 L 45.328125 -41.3125 L 45.328125 -42.625 C 45.328125 -43.769531 44.941406 -44.75 44.171875 -45.5625 C 43.410156 -46.382812 42.429688 -46.796875 41.234375 -46.796875 Z M 26.390625 -46.796875" transform="translate(385.498 639.088)"/></g></g></g><g><g><g><path d="M 17.875 -47.09375 C 22.082031 -49.25 26.710938 -50.328125 31.765625 -50.328125 C 36.816406 -50.328125 41.445312 -49.25 45.65625 -47.09375 C 49.863281 -44.9375 53.207031 -41.890625 55.6875 -37.953125 C 58.175781 -34.015625 59.421875 -29.554688 59.421875 -24.578125 C 59.421875 -19.609375 58.175781 -15.15625 55.6875 -11.21875 C 53.207031 -7.289062 49.863281 -4.25 45.65625 -2.09375 C 41.445312 0.0625 37.128906 1.140625 32.703125 1.140625 C 28.273438 1.140625 24.367188 0.515625 20.984375 -0.734375 C 17.597656 -1.992188 14.660156 -3.742188 12.171875 -5.984375 C 9.679688 -8.222656 7.710938 -10.953125 6.265625 -14.171875 C 4.816406 -17.398438 4.09375 -21.1875 4.09375 -25.53125 C 4.09375 -29.875 5.335938 -34.015625 7.828125 -37.953125 C 10.316406 -41.890625 13.664062 -44.9375 17.875 -47.09375 Z M 16.359375 -7.828125 C 20.484375 -3.484375 25.601562 -1.3125 31.71875 -1.3125 C 37.84375 -1.3125 42.976562 -3.484375 47.125 -7.828125 C 51.28125 -12.171875 53.359375 -17.757812 53.359375 -24.59375 C 53.359375 -31.425781 51.28125 -37.015625 47.125 -41.359375 C 42.976562 -45.703125 37.84375 -47.875 31.71875 -47.875 C 25.601562 -47.875 20.484375 -45.703125 16.359375 -41.359375 C 12.234375 -37.015625 10.171875 -31.425781 10.171875 -24.59375 C 10.171875 -17.757812 12.234375 -12.171875 16.359375 -7.828125 Z M 16.359375 -7.828125" transform="translate(432.865 639.088)"/></g></g></g><g><g><g><path d="M 19.84375 -46.640625 L 15.484375 -46.640625 L 15.484375 -5.25 C 15.546875 -3.550781 16.3125 -2.265625 17.78125 -1.390625 C 18.5 -1.003906 19.296875 -0.8125 20.171875 -0.8125 L 21.234375 -0.8125 L 21.3125 0 L 4.515625 0 L 4.515625 -0.8125 L 5.65625 -0.8125 C 6.914062 -0.8125 7.992188 -1.234375 8.890625 -2.078125 C 9.796875 -2.929688 10.25 -3.957031 10.25 -5.15625 L 10.25 -44.09375 C 10.25 -45.300781 9.796875 -46.3125 8.890625 -47.125 C 7.992188 -47.945312 6.914062 -48.359375 5.65625 -48.359375 L 4.515625 -48.359375 L 4.515625 -49.1875 L 25.078125 -49.1875 C 30.210938 -49.1875 34.269531 -48.007812 37.25 -45.65625 C 40.226562 -43.300781 41.71875 -40.210938 41.71875 -36.390625 C 41.71875 -32.566406 40.515625 -29.367188 38.109375 -26.796875 C 35.710938 -24.234375 32.65625 -22.757812 28.9375 -22.375 C 30.6875 -21.613281 32.789062 -19.484375 35.25 -15.984375 C 35.195312 -15.984375 36.140625 -14.78125 38.078125 -12.375 C 40.015625 -9.96875 41.570312 -8.09375 42.75 -6.75 C 43.925781 -5.414062 44.894531 -4.394531 45.65625 -3.6875 C 47.675781 -1.769531 50 -0.8125 52.625 -0.8125 L 52.625 0 L 50.078125 0 C 45.765625 0 42.378906 -0.847656 39.921875 -2.546875 C 38.054688 -3.796875 36.363281 -5.351562 34.84375 -7.21875 C 34.507812 -7.65625 33.125 -9.578125 30.6875 -12.984375 C 28.257812 -16.398438 26.960938 -18.21875 26.796875 -18.4375 C 23.847656 -22.101562 21.09375 -23.9375 18.53125 -23.9375 L 18.53125 -24.75 C 24.914062 -24.75 28.765625 -25.078125 30.078125 -25.734375 C 31.878906 -26.660156 33.109375 -27.644531 33.765625 -28.6875 C 35.140625 -30.875 35.828125 -33.28125 35.828125 -35.90625 C 35.828125 -39.238281 34.84375 -41.804688 32.875 -43.609375 C 30.90625 -45.410156 28.253906 -46.394531 24.921875 -46.5625 C 23.441406 -46.613281 21.75 -46.640625 19.84375 -46.640625 Z M 19.84375 -46.640625" transform="translate(496.294 639.088)"/></g></g></g><g><g><g><path d="M 54.09375 -0.8125 L 54.75 -0.8125 L 54.75 0 L 37.953125 0 L 37.953125 -0.8125 L 38.609375 -0.8125 C 39.648438 -0.8125 40.441406 -1.164062 40.984375 -1.875 C 41.523438 -2.59375 41.796875 -3.265625 41.796875 -3.890625 C 41.796875 -4.523438 41.6875 -5.140625 41.46875 -5.734375 L 36.96875 -16.640625 L 16.234375 -16.640625 L 11.71875 -5.984375 C 11.445312 -5.273438 11.3125 -4.601562 11.3125 -3.96875 C 11.3125 -3.34375 11.582031 -2.660156 12.125 -1.921875 C 12.675781 -1.179688 13.5 -0.8125 14.59375 -0.8125 L 15.25 -0.8125 L 15.25 0 L -0.40625 0 L -0.40625 -0.8125 L 0.25 -0.8125 C 1.394531 -0.8125 2.550781 -1.207031 3.71875 -2 C 4.894531 -2.800781 5.867188 -3.992188 6.640625 -5.578125 C 18.609375 -31.148438 24.835938 -44.535156 25.328125 -45.734375 C 26.253906 -48.035156 26.742188 -49.566406 26.796875 -50.328125 L 27.546875 -50.328125 L 47.78125 -5.578125 C 49.375 -2.398438 51.476562 -0.8125 54.09375 -0.8125 Z M 17.296875 -19.09375 L 35.984375 -19.09375 L 26.796875 -41.5625 Z M 17.296875 -19.09375" transform="translate(547.676 639.088)"/></g></g></g></svg>